<svg xmlns="http://www.w3.org/2000/svg" width="50" height="50" fill="none" viewBox="0 0 50 50">
    <rect width="50" height="50" fill="#3E5481" rx="16"/>
    <mask id="y6nz8d9npa" width="50" height="50" x="0" y="0" maskUnits="userSpaceOnUse">
        <rect width="50" height="50" fill="#3E5481" rx="16"/>
    </mask>
    <g mask="url(#y6nz8d9npa)">
        <path fill="#314163" d="M25.5 12l11 3 .5 1 14.5 24.5L40 50H26L14.5 29 14 16.5l5.5-2.5 6-2z"/>
    </g>
    <path fill="#1FCC79" fill-rule="evenodd" d="M25.155 11.05c.229-.067.472-.067.7 0L37.1 14.335c.534.156.9.644.9 1.2v6.736c0 7.619-4.876 14.382-12.103 16.79-.257.086-.534.086-.79 0C17.877 36.653 13 29.888 13 22.268v-6.733c0-.556.367-1.044.9-1.2l11.255-3.285zM15.5 16.472v5.796c0 6.404 4.011 12.105 10.002 14.284 5.988-2.18 9.998-7.878 9.998-14.28v-5.8l-9.995-2.92-10.005 2.92zm9.969 1.997c.69 0 1.25.56 1.25 1.25v3.75h3.75c.69 0 1.25.56 1.25 1.25s-.56 1.25-1.25 1.25h-3.75v3.75c0 .69-.56 1.25-1.25 1.25s-1.25-.56-1.25-1.25v-3.75h-3.75c-.69 0-1.25-.56-1.25-1.25s.56-1.25 1.25-1.25h3.75v-3.75c0-.69.56-1.25 1.25-1.25z" clip-rule="evenodd"/>
    <path fill="#1FCC79" fill-rule="evenodd" d="M15.5 22.268v-5.796l10.005-2.92 9.995 2.92v5.8c0 6.402-4.01 12.1-9.998 14.28-5.99-2.18-10.002-7.88-10.002-14.284zm9.969-3.8c.69 0 1.25.56 1.25 1.25v3.75h3.75c.69 0 1.25.56 1.25 1.25s-.56 1.25-1.25 1.25h-3.75v3.75c0 .69-.56 1.25-1.25 1.25s-1.25-.56-1.25-1.25v-3.75h-3.75c-.69 0-1.25-.56-1.25-1.25s.56-1.25 1.25-1.25h3.75v-3.75c0-.69.56-1.25 1.25-1.25z" clip-rule="evenodd"/>
    <path fill="#314163" d="M27.1 19.35c0-.746-.604-1.35-1.35-1.35-.746 0-1.35.604-1.35 1.35v4.05h-4.05c-.746 0-1.35.604-1.35 1.35 0 .746.604 1.35 1.35 1.35h4.05v4.05c0 .746.604 1.35 1.35 1.35.746 0 1.35-.604 1.35-1.35V26.1h4.05c.746 0 1.35-.604 1.35-1.35 0-.746-.604-1.35-1.35-1.35H27.1v-4.05z"/>
</svg>
