<svg xmlns="http://www.w3.org/2000/svg" width="50" height="50" fill="none" viewBox="0 0 50 50">
    <rect width="50" height="50" fill="#3E5481" rx="16"/>
    <mask id="y1or1wx3aa" width="50" height="50" x="0" y="0" maskUnits="userSpaceOnUse">
        <rect width="50" height="50" fill="#3E5481" rx="16"/>
    </mask>
    <g mask="url(#y1or1wx3aa)">
        <path fill="#314163" d="M25.5 12l11 3 .5 1 14.5 24.5L40 50H26L14.5 29 14 16.5l5.5-2.5 6-2z"/>
    </g>
    <path fill="#1FCC79" fill-rule="evenodd" d="M25.856 11.05c-.229-.067-.472-.067-.7 0L13.9 14.335c-.533.155-.9.644-.9 1.2v6.733c0 7.62 4.877 14.385 12.107 16.793.256.086.533.086.79 0C33.124 36.653 38 29.89 38 22.271v-6.736c0-.556-.366-1.044-.9-1.2L25.856 11.05zM15.5 22.268v-5.796l10.005-2.92 9.995 2.92v5.8c0 6.402-4.01 12.1-9.998 14.28-5.99-2.18-10.002-7.88-10.002-14.284z" clip-rule="evenodd"/>
    <path fill="#1FCC79" d="M15.5 16.472v5.796c0 6.404 4.011 12.105 10.002 14.284 5.988-2.18 9.998-7.878 9.998-14.28v-5.8l-9.995-2.92-10.005 2.92z"/>
    <path fill="#314163" d="M19.364 23.41c0-1.13.915-2.046 2.045-2.046h5.455c1.13 0 2.045.915 2.045 2.045s-.916 2.046-2.045 2.046h-3.41c-.376 0-.681.305-.681.681 0 .377.305.682.681.682h3.41c1.882 0 3.409-1.526 3.409-3.409 0-1.883-1.527-3.409-3.41-3.409H21.41C19.526 20 18 21.526 18 23.41c0 .863.322 1.654.852 2.254.25.283.68.31.963.06.282-.249.309-.68.06-.962-.319-.361-.511-.834-.511-1.353z"/>
    <path fill="#314163" d="M24.136 22.727c-1.882 0-3.409 1.527-3.409 3.41 0 1.882 1.527 3.409 3.41 3.409h5.454c1.883 0 3.409-1.527 3.409-3.41 0-.864-.322-1.654-.852-2.255-.25-.282-.68-.309-.963-.06-.282.25-.309.68-.06.963.319.36.511.833.511 1.352 0 1.13-.915 2.046-2.045 2.046h-5.455c-1.13 0-2.045-.916-2.045-2.046s.916-2.045 2.045-2.045h3.41c.376 0 .681-.305.681-.682 0-.377-.305-.682-.681-.682h-3.41z"/>
</svg>
