<svg xmlns="http://www.w3.org/2000/svg" width="51" height="50" fill="none" viewBox="0 0 51 50">
    <rect width="50" height="50" x=".5" fill="#3E5481" rx="16"/>
    <mask id="fxkr90sana" width="51" height="50" x="0" y="0" maskUnits="userSpaceOnUse">
        <rect width="50" height="50" x=".5" fill="#C4C4C4" rx="16"/>
    </mask>
    <g mask="url(#fxkr90sana)">
        <path fill="#314163" d="M12 11.5l5.5-.5 4-1L25 8.5l2.011 1.064L32.5 11l5.5.5 12.5 13.702V50H28.562L17.704 39.5 19 36v-.5l-2.224-2.255L16 32l-1.5-2.5-1.006-2.957L12.5 23.5l-.5-3v-9z"/>
    </g>
    <path fill="#1FCC79" fill-rule="evenodd" d="M25.042 8s-4.082 3.039-13.379 3.265c0 0-.847 6.792 1.165 14.019.457 1.644 1.035 3.348 2.184 5.48 2.021 3.75 5.154 7.068 10.03 8.845 4.876-1.777 8.01-5.096 10.028-8.845 1.087-2.017 1.727-3.836 2.182-5.48 1.987-7.17 1.168-14.02 1.168-14.02C29.123 11.04 25.042 8 25.042 8zm0 31.61c-.232-.085.223.09 0 0zm0 0c.346-.134-.33.136 0 0-.33.142.347-.127 0 0zm10.028-8.846c.05-.085-.049.088 0 0-.048.087.05-.086 0 0z" clip-rule="evenodd"/>
    <path fill="#1FCC79" d="M18.646 36.207l-1.327 3.58 2.417.033 1.856 1.55.91-2.456c-1.405-.741-2.7-1.636-3.856-2.707zm8.997 2.676l.848 2.29 1.856-1.55 2.417-.034-1.272-3.435c-1.156 1.077-2.445 1.98-3.849 2.729zM25.041 37.596v-6.832h-8.04c1.753 2.885 4.303 5.393 8.04 6.832zm-11.66-24.631c-.122 1.785-.276 6.675 1.082 11.734h10.578V10.114c-1.27.752-4.982 2.566-11.66 2.85z"/>
    <path fill="#1FCC79" d="M25.042 38.9c-4.522-1.647-7.474-4.683-9.41-8.136h-.62c2.021 3.75 5.154 7.068 10.03 8.845 4.876-1.777 8.01-5.096 10.028-8.845h-.619c-1.935 3.453-4.887 6.488-9.41 8.136zM38.42 11.265C29.123 11.039 25.042 8 25.042 8s-4.082 3.039-13.379 3.265c0 0-.765 6.51 1.018 13.434h.568c-1.717-6.63-.987-12.873-.987-12.873 8.88-.215 12.78-3.117 12.78-3.117s3.899 2.901 12.779 3.117c0 0 .73 6.243-.986 12.873h.567c1.783-6.923 1.018-13.434 1.018-13.434z"/>
    <path fill="#1FCC79" d="M33.078 30.764H25.04v6.832c3.735-1.438 6.284-3.945 8.037-6.832zm-8.037-20.65V24.7h10.573c1.36-5.058 1.21-9.948 1.087-11.734-6.678-.285-10.39-2.099-11.66-2.85zM25.041 25.284H12.827c.458 1.645 1.064 3.303 1.864 4.895h20.7c.8-1.591 1.406-3.25 1.861-4.895H25.041"/>
    <path fill="#314163" d="M18.82 20.244h-1.256v-5.68h4.37v.786h-3.115v1.774h2.918v.79h-2.918v2.33zm12.33-4.964c-.729 0-1.3.189-1.716.566-.417.379-.626.901-.626 1.566 0 .698.201 1.225.602 1.581.4.359.98.538 1.74.538.328 0 .645-.024.953-.074.306-.047.626-.109.958-.184v.797c-.608.168-1.295.253-2.066.253-1.132 0-2.003-.252-2.61-.756-.607-.504-.912-1.224-.912-2.163 0-.59.15-1.107.442-1.55.295-.443.723-.781 1.28-1.018.559-.234 1.213-.353 1.964-.353.791 0 1.523.123 2.194.365l-.457.774c-.26-.091-.537-.172-.829-.24-.3-.07-.608-.104-.917-.102zm-1.683 7.497c-.58-.582-1.27-1.043-2.03-1.357-.76-.315-1.574-.476-2.396-.474-3.45 0-6.257 2.807-6.257 6.256 0 1.672.65 3.243 1.833 4.428.58.581 1.27 1.042 2.03 1.356.759.314 1.573.475 2.394.474 1.667 0 3.24-.649 4.427-1.832.582-.58 1.044-1.27 1.358-2.03.314-.76.475-1.574.472-2.396 0-1.67-.65-3.24-1.83-4.425z"/>
    <path fill="#1FCC79" d="M28.419 25.857l-1.741.482-1.59-1.154V23.58l1.693-1.223c.715.256 1.363.668 1.899 1.207.122.12.235.246.34.376l-.601 1.916zm.942 4.136L27.258 30l-1.087-1.506-.007-.006.612-1.89 1.714-.474 1.693 1.256c-.03.93-.314 1.833-.822 2.613zm-2.89 2.153c-.938.272-1.934.271-2.871-.002l-.622-1.924.967-1.562h2.002l1.154 1.593-.63 1.895zm-5.724-2.105c-.509-.768-.8-1.659-.845-2.578l1.615-1.157 1.595.282.616 1.896-.963 1.558-2.018-.002zm.656-6.476c.502-.505 1.105-.899 1.769-1.156l1.642 1.172v1.597l-1.582 1.15-1.618-.286-.642-1.986c.132-.172.275-.335.43-.491zm3.638-1.785c-2.989 0-5.422 2.43-5.422 5.422 0 1.448.563 2.811 1.587 3.836.503.504 1.1.904 1.759 1.177.658.272 1.364.412 2.076.41.713.002 1.419-.138 2.078-.41.658-.273 1.256-.673 1.76-1.177.504-.503.904-1.101 1.176-1.76.272-.658.412-1.364.41-2.076.002-.712-.138-1.418-.41-2.076-.272-.658-.672-1.255-1.177-1.758-.503-.505-1.1-.905-1.76-1.177-.658-.273-1.364-.412-2.077-.41z"/>
</svg>
