<svg width="16" height="15" viewBox="0 0 16 15" fill="none" xmlns="http://www.w3.org/2000/svg">
<path d="M14.5494 4.64523C14.2263 3.90935 13.7648 3.17347 13.2109 2.52958C12.7955 2.06966 12.334 1.65572 11.8263 1.28778C11.3186 0.919845 10.7647 0.643893 10.1647 0.459924C9.38009 0.183969 8.54931 0 7.71853 0C6.74929 0 5.8262 0.137977 4.90311 0.459924C4.53387 0.597901 4.21079 0.735877 3.84156 0.965839C2.91847 1.47175 2.13385 2.16164 1.48768 3.0355C1.44153 3.12748 1.34922 3.17347 1.30307 3.26546C1.1646 3.44943 1.07229 3.63339 0.979984 3.81736C0.472286 4.73721 0.149205 5.70305 0.0568959 6.66889C0.0107415 7.03683 0.0107422 7.40477 0.0107422 7.8187C0.0568966 8.92252 0.333823 10.0263 0.841521 10.9922C1.07229 11.4521 1.39537 11.912 1.71846 12.326C2.13385 12.8319 2.64154 13.3378 3.24155 13.7057C3.84156 14.1197 4.44157 14.3956 5.08773 14.6256C5.59543 14.8095 6.14928 14.9015 6.65698 14.9475C7.76468 15.0855 8.87239 14.9475 9.93394 14.5796C10.3032 14.4416 10.6263 14.3036 10.9955 14.1197C11.8724 13.6597 12.6571 13.0158 13.3032 12.234C13.4417 12.05 13.5801 11.912 13.6724 11.7281C13.7186 11.6361 13.7648 11.5441 13.8109 11.4521C14.3648 10.5322 14.734 9.52042 14.8725 8.50859C14.9186 8.14065 14.9648 7.72672 14.9648 7.35878C15.1032 6.43893 14.9186 5.51908 14.5494 4.64523ZM1.30307 4.55324L1.1646 6.16297L0.703058 6.39294C0.841522 5.79503 1.02614 5.15114 1.30307 4.55324ZM3.2877 10.3943L1.6723 11.1761C1.02614 10.0723 0.656903 8.83053 0.656903 7.58874L1.6723 7.08282L3.42617 8.27862L3.2877 10.3943ZM3.7954 2.3916L2.22615 3.12748C2.6877 2.57557 3.24155 2.06965 3.84156 1.70172L3.7954 2.3916ZM4.90311 1.14981C6.05697 0.643893 7.34929 0.505916 8.64162 0.689885L8.50315 2.75954L6.56467 3.67939L4.8108 2.48358L4.90311 1.14981ZM4.25695 10.4863L4.39541 8.37061L6.3339 7.45076L8.08776 8.64656L7.9493 10.7622L6.01081 11.6821L4.25695 10.4863ZM10.1186 13.9817C8.91854 14.4416 7.62622 14.5796 6.38005 14.3496L6.51852 12.5559L8.457 11.6361L10.2109 12.8319L10.1186 13.9817ZM10.5801 6.94485L8.64162 7.86469L6.88775 6.66889L7.02621 4.55324L8.9647 3.63339L10.7186 4.8292L10.5801 6.94485ZM11.1801 13.4758L11.2263 12.9698L12.7032 12.28C12.2417 12.7399 11.734 13.1538 11.1801 13.4758ZM13.6724 10.9002L13.8109 9.15248L14.4109 8.87652C14.2725 9.56641 14.0417 10.2563 13.6724 10.9002ZM13.3494 8.27862L11.5955 7.08282L11.734 4.96717L13.6263 4.04733C14.2725 5.15114 14.5955 6.39294 14.5494 7.68072L13.3494 8.27862Z" fill="#1FCC79"/>
</svg>
