<svg width="14" height="13" viewBox="0 0 14 13" fill="none" xmlns="http://www.w3.org/2000/svg">
<path d="M12.6649 2.49138L10.6092 0.314725C10.4231 0.127553 10.1734 0.0722929 9.92618 0.180717C9.69895 0.315042 9.57774 0.532939 9.61433 0.794352C9.77005 1.58446 9.48651 2.34175 8.89081 2.8024L8.86491 2.82242C8.24918 3.25717 7.42489 3.31516 6.67934 2.93977C6.44142 2.79265 6.1282 2.8693 5.96106 3.08133L0.681857 9.68827C0.289896 10.1983 0.301957 11.0167 0.78263 11.6383C1.34342 12.3635 2.29616 12.5787 2.91776 12.098L2.96956 12.058C2.96956 12.058 2.96956 12.058 2.98959 12.0839L3.30763 12.3346C3.37358 12.3664 3.46544 12.3781 3.51724 12.338L4.03524 11.9375C4.08704 11.8974 4.09879 11.8056 4.08463 11.7337L3.92199 11.3629C3.92199 11.3629 3.92199 11.3629 3.90196 11.337L4.39407 10.9564C4.39407 10.9564 4.39407 10.9564 4.4141 10.9823L4.73213 11.233C4.79809 11.2648 4.88994 11.2766 4.94175 11.2365L5.45975 10.8359C5.51155 10.7959 5.52329 10.704 5.50913 10.6322L5.3465 10.2613C5.3465 10.2613 5.3465 10.2613 5.32647 10.2354L5.81857 9.85488C5.81857 9.85488 5.81857 9.85488 5.8386 9.88078L6.15664 10.1315C6.22259 10.1633 6.31445 10.175 6.36625 10.135L6.88425 9.7344C6.93605 9.69434 6.94779 9.60249 6.93364 9.53066L6.771 9.15977C6.771 9.15977 6.771 9.15977 6.75097 9.13387L10.3252 6.37C10.3252 6.37 10.3252 6.37 10.3452 6.3959L10.6632 6.64662C10.7292 6.67839 10.8211 6.69013 10.8729 6.65008L11.3909 6.24952C11.4427 6.20946 11.4544 6.1176 11.4402 6.04578L11.2776 5.67489L11.2576 5.64899L11.7238 5.28848L11.7438 5.31439L12.0618 5.5651C12.1278 5.59687 12.2197 5.60862 12.2715 5.56856L12.7895 5.168C12.8413 5.12795 12.853 5.03609 12.8389 4.96426L12.6762 4.59338L12.6562 4.56747C12.9152 4.36719 13.0682 4.08334 13.0893 3.73595C13.168 3.30256 12.9912 2.85985 12.6649 2.49138Z" fill="#FF6464"/>
</svg>
