<svg width="11" height="15" viewBox="0 0 11 15" fill="none" xmlns="http://www.w3.org/2000/svg">
<path d="M10.2864 4.32705C10.0062 4.25389 9.72612 4.29047 9.51603 4.43679L9.90119 2.90043C10.0763 2.27856 9.72612 1.6567 9.13087 1.4738C8.53561 1.2909 7.94036 1.6567 7.76528 2.27856L7.97537 1.43722C8.15045 0.851942 7.8003 0.193499 7.20505 0.0471792C6.64481 -0.135721 6.01454 0.23008 5.87448 0.851941L5.59436 1.94934C5.76943 1.36406 5.41928 0.705621 4.82403 0.559301C4.26379 0.3764 3.63352 0.742201 3.49346 1.36406C3.17833 2.49804 3.21335 2.42489 2.89821 3.59545C2.75815 4.07099 2.58308 4.72943 2.408 5.46103L2.33797 5.02207C2.19791 4.36363 1.60266 3.92467 0.937377 4.07099C0.307109 4.21731 -0.113071 4.83917 0.0269885 5.53419C0.237078 6.08289 0.412153 6.74133 0.552212 7.50951C0.622242 7.87531 0.657257 8.20454 0.692272 8.53376C0.657257 9.66774 1.00741 10.7651 1.67269 11.6431C1.60266 11.7162 1.56764 11.7894 1.53263 11.8991L1.25251 12.8868C1.14747 13.2892 1.35756 13.6915 1.74272 13.8013L5.83946 14.9718C6.22463 15.0816 6.60979 14.8621 6.71484 14.4597L6.99496 13.4721C7.02997 13.3257 7.02997 13.1428 6.95994 12.9965C8.25549 12.4478 9.27093 11.2773 9.6911 9.77748L9.86618 9.08246L10.0763 8.27769L10.7766 5.57077C11.0917 5.02207 10.8116 4.47337 10.2864 4.32705Z" fill="#FF6464"/>
</svg>
