<svg xmlns="http://www.w3.org/2000/svg" width="174" height="63" fill="none" viewBox="0 0 174 63">
    <rect width="149" height="45" x="13" y="18" fill="#3E5481" rx="16"/>
    <mask id="0qb23qgopa" width="149" height="45" x="13" y="18" maskUnits="userSpaceOnUse">
        <rect width="149" height="45" x="13" y="18" fill="#3E5481" rx="16"/>
    </mask>
    <g mask="url(#0qb23qgopa)">
        <path fill="#084074" d="M38.5 24H49v2.5L72.5 63H77l-8.5-11-1.5-4h7.5l-6-6.5L77 31l7 2 4 3 16.5 27h5L102 52l-2-8.5v-18h9.5L112 31l1 2 7 15 8 15h3l-8.5-14 3.5-16h7.5l5 3 5.5-5 3 2 12 23.5-2 3-3 3.5H32.5l-5-8.5 11-30.5z"/>
    </g>
    <path fill="#fff" d="M48.78 51.185H38.16L36.585 56H26.1l11.655-31.86h11.52L60.885 56h-10.53l-1.575-4.815zm-2.43-7.515l-2.88-8.865-2.88 8.865h5.76zM78.7 56.315c-2.4 0-4.53-.39-6.39-1.17-1.83-.78-3.285-1.86-4.365-3.24-1.08-1.38-1.695-2.94-1.845-4.68h9.585c.12.75.435 1.305.945 1.665.54.36 1.215.54 2.025.54.51 0 .915-.105 1.215-.315.3-.24.45-.525.45-.855 0-.57-.315-.975-.945-1.215-.63-.24-1.695-.51-3.195-.81-1.83-.36-3.345-.75-4.545-1.17-1.17-.42-2.205-1.14-3.105-2.16-.87-1.02-1.305-2.43-1.305-4.23 0-1.56.405-2.97 1.215-4.23.84-1.29 2.07-2.295 3.69-3.015 1.62-.75 3.585-1.125 5.895-1.125 3.42 0 6.09.84 8.01 2.52 1.95 1.68 3.12 3.87 3.51 6.57H80.68c-.15-.69-.465-1.215-.945-1.575-.48-.39-1.125-.585-1.935-.585-.51 0-.9.105-1.17.315-.27.18-.405.465-.405.855 0 .51.315.9.945 1.17.63.24 1.635.495 3.015.765 1.83.36 3.375.765 4.635 1.215 1.26.45 2.355 1.23 3.285 2.34.93 1.08 1.395 2.58 1.395 4.5 0 1.5-.435 2.85-1.305 4.05-.87 1.2-2.13 2.145-3.78 2.835-1.62.69-3.525 1.035-5.715 1.035zm34.809-8.82V56h-3.78c-6.96 0-10.44-3.465-10.44-10.395v-6.66h-3.15V30.62h3.15V24.5h9.99v6.12h4.14v8.325h-4.14v6.84c0 .6.135 1.035.405 1.305.3.27.78.405 1.44.405h2.385zm6.705-4.185c0-2.67.45-4.98 1.35-6.93.93-1.98 2.19-3.48 3.78-4.5 1.59-1.05 3.375-1.575 5.355-1.575 1.65 0 3.075.345 4.275 1.035 1.2.66 2.115 1.575 2.745 2.745V30.62h9.945V56h-9.945v-3.465c-.63 1.17-1.545 2.1-2.745 2.79-1.2.66-2.625.99-4.275.99-1.98 0-3.765-.51-5.355-1.53-1.59-1.05-2.85-2.55-3.78-4.5-.9-1.98-1.35-4.305-1.35-6.975zm17.505 0c0-1.35-.345-2.4-1.035-3.15s-1.575-1.125-2.655-1.125c-1.08 0-1.965.375-2.655 1.125-.69.75-1.035 1.8-1.035 3.15 0 1.35.345 2.4 1.035 3.15s1.575 1.125 2.655 1.125c1.08 0 1.965-.375 2.655-1.125.69-.75 1.035-1.8 1.035-3.15z"/>
    <path fill="#1FCC79" d="M27.815.6v8.8h-13.9v4.9h10v8.35h-10V36h-11.1V.6h25zm7.26 21.3c0-2.967.5-5.533 1.5-7.7 1.033-2.2 2.433-3.867 4.2-5 1.767-1.167 3.75-1.75 5.95-1.75 1.834 0 3.417.383 4.75 1.15 1.334.733 2.35 1.75 3.05 3.05V7.8h11.05V36h-11.05v-3.85c-.7 1.3-1.716 2.333-3.05 3.1-1.333.733-2.916 1.1-4.75 1.1-2.2 0-4.183-.567-5.95-1.7-1.767-1.167-3.166-2.833-4.2-5-1-2.2-1.5-4.783-1.5-7.75zm19.45 0c0-1.5-.383-2.667-1.15-3.5-.767-.833-1.75-1.25-2.95-1.25-1.2 0-2.183.417-2.95 1.25-.767.833-1.15 2-1.15 3.5s.383 2.667 1.15 3.5c.767.833 1.75 1.25 2.95 1.25 1.2 0 2.184-.417 2.95-1.25.767-.833 1.15-2 1.15-3.5zM95.31 7.6c3.233 0 5.75 1.083 7.55 3.25 1.833 2.167 2.75 5.1 2.75 8.8V36H94.56V21.05c0-1.333-.367-2.383-1.1-3.15-.7-.8-1.65-1.2-2.85-1.2-1.234 0-2.2.4-2.9 1.2-.7.767-1.05 1.817-1.05 3.15V36h-11.1V7.8h11.1v4.3c.866-1.333 2.016-2.417 3.45-3.25 1.466-.833 3.2-1.25 5.2-1.25zm37.663 18.95V36h-4.2c-7.733 0-11.6-3.85-11.6-11.55v-7.4h-3.5V7.8h3.5V1h11.1v6.8h4.6v9.25h-4.6v7.6c0 .667.15 1.15.45 1.45.333.3.867.45 1.6.45h2.65zm7.727-4.65c0-2.967.5-5.533 1.5-7.7 1.034-2.2 2.434-3.867 4.2-5 1.767-1.167 3.75-1.75 5.95-1.75 1.834 0 3.417.383 4.75 1.15 1.334.733 2.35 1.75 3.05 3.05V7.8h11.05V36h-11.05v-3.85c-.7 1.3-1.716 2.333-3.05 3.1-1.333.733-2.916 1.1-4.75 1.1-2.2 0-4.183-.567-5.95-1.7-1.766-1.167-3.166-2.833-4.2-5-1-2.2-1.5-4.783-1.5-7.75zm19.45 0c0-1.5-.383-2.667-1.15-3.5-.766-.833-1.75-1.25-2.95-1.25-1.2 0-2.183.417-2.95 1.25-.766.833-1.15 2-1.15 3.5s.384 2.667 1.15 3.5c.767.833 1.75 1.25 2.95 1.25 1.2 0 2.184-.417 2.95-1.25.767-.833 1.15-2 1.15-3.5z"/>
</svg>
