<svg width="151" height="138" viewBox="0 0 151 138" fill="none" xmlns="http://www.w3.org/2000/svg">
<rect x="35.5" width="80" height="80" rx="26" fill="#3E5481"/>
<path d="M105.548 44.0934C105.459 44.0933 105.372 44.0743 105.291 44.0375C105.211 44.0008 105.139 43.9472 105.081 43.8805L102.4 40.8066L99.3678 43.4806C99.2447 43.5893 99.0835 43.6446 98.9196 43.6344C98.7557 43.6242 98.6025 43.5492 98.4938 43.4261C98.3852 43.303 98.3299 43.1417 98.3401 42.9778C98.3503 42.8139 98.4252 42.6608 98.5483 42.5521L102.047 39.4659C102.108 39.4119 102.179 39.3705 102.257 39.3442C102.334 39.3179 102.416 39.3071 102.497 39.3125C102.579 39.318 102.658 39.3394 102.731 39.3757C102.804 39.412 102.87 39.4624 102.923 39.5241L106.018 43.0671C106.124 43.1906 106.177 43.3507 106.165 43.5128C106.154 43.675 106.079 43.8261 105.958 43.9337C105.845 44.0359 105.699 44.0928 105.548 44.0934Z" fill="#1FCC79" stroke="#1FCC79" stroke-width="0.5"/>
<path d="M49.8952 41.151H49.8556C49.7741 41.1455 49.6946 41.124 49.6215 41.0877C49.5484 41.0513 49.4832 41.0009 49.4297 40.9393L46.3348 37.3962C46.2778 37.3356 46.2337 37.2641 46.205 37.186C46.1763 37.1079 46.1636 37.0248 46.1678 36.9417C46.1719 36.8587 46.1927 36.7772 46.229 36.7024C46.2653 36.6275 46.3163 36.5608 46.379 36.5061C46.4417 36.4514 46.5148 36.4099 46.5939 36.384C46.673 36.3582 46.7564 36.3486 46.8393 36.3558C46.9222 36.363 47.0028 36.3868 47.0763 36.4258C47.1498 36.4648 47.2146 36.5182 47.267 36.5829L49.9496 39.6567L52.9814 36.9827C53.042 36.9267 53.1132 36.8833 53.1908 36.8552C53.2684 36.8271 53.3508 36.8148 53.4333 36.819C53.5157 36.8232 53.5965 36.8438 53.6708 36.8797C53.7451 36.9156 53.8115 36.9659 53.8661 37.0279C53.9207 37.0898 53.9623 37.162 53.9886 37.2403C54.0148 37.3185 54.0252 37.4012 54.019 37.4835C54.0128 37.5658 53.9902 37.6461 53.9526 37.7195C53.9149 37.793 53.8629 37.8582 53.7997 37.9112L50.3049 40.9962C50.1918 41.096 50.0461 41.1511 49.8952 41.151Z" fill="#1FCC79" stroke="#1FCC79" stroke-width="0.5"/>
<path d="M76.1551 67.0203C71.0026 67.0206 65.9589 65.5385 61.6257 62.7507C57.2926 59.9629 53.8531 55.9872 51.7176 51.2981C51.6801 51.2238 51.658 51.1426 51.6527 51.0594C51.6473 50.9763 51.6587 50.893 51.6863 50.8144C51.714 50.7358 51.7571 50.6636 51.8133 50.6021C51.8695 50.5406 51.9375 50.491 52.0133 50.4564C52.0891 50.4218 52.171 50.4029 52.2543 50.4007C52.3376 50.3986 52.4204 50.4132 52.4979 50.4439C52.5754 50.4745 52.6459 50.5204 52.7051 50.5789C52.7644 50.6375 52.8113 50.7073 52.8429 50.7844C54.8803 55.2574 58.1615 59.0498 62.295 61.7091C66.4286 64.3684 71.24 65.7824 76.1551 65.7823C90.2741 65.7823 101.76 54.2953 101.76 40.1763C101.76 40.0121 101.825 39.8547 101.941 39.7386C102.057 39.6225 102.215 39.5573 102.379 39.5573C102.543 39.5573 102.7 39.6225 102.817 39.7386C102.933 39.8547 102.998 40.0121 102.998 40.1763C102.998 47.2955 100.17 54.1232 95.1359 59.1574C90.1019 64.1916 83.2743 67.02 76.1551 67.0203Z" fill="#1FCC79" stroke="#1FCC79" stroke-width="0.5"/>
<path d="M49.93 40.7954C49.7659 40.7954 49.6084 40.7302 49.4923 40.6141C49.3762 40.498 49.311 40.3406 49.311 40.1764C49.3121 34.0454 51.4116 28.0995 55.2603 23.3271C59.1091 18.5547 64.4754 15.2434 70.467 13.9436C76.4586 12.6438 82.7146 13.4339 88.195 16.1825C93.6753 18.9311 98.0498 23.4726 100.591 29.0521C100.629 29.1264 100.651 29.2076 100.656 29.2907C100.662 29.3739 100.65 29.4572 100.623 29.5358C100.595 29.6144 100.552 29.6866 100.496 29.7481C100.439 29.8096 100.371 29.8592 100.296 29.8938C100.22 29.9284 100.138 29.9473 100.055 29.9495C99.9713 29.9516 99.8885 29.937 99.811 29.9063C99.7335 29.8757 99.663 29.8298 99.6038 29.7713C99.5445 29.7127 99.4976 29.6429 99.466 29.5658C97.4286 25.0933 94.1475 21.3014 90.0141 18.6425C85.8808 15.9836 81.0698 14.57 76.1551 14.5703C62.0423 14.5703 50.549 26.0574 50.549 40.1764C50.549 40.2577 50.533 40.3382 50.5019 40.4133C50.4708 40.4884 50.4252 40.5566 50.3677 40.6141C50.3102 40.6716 50.242 40.7172 50.1669 40.7483C50.0918 40.7794 50.0113 40.7954 49.93 40.7954Z" fill="#1FCC79" stroke="#1FCC79" stroke-width="0.5"/>
<path fill-rule="evenodd" clip-rule="evenodd" d="M92.6544 42.5183C92.8262 41.3596 93.45 36.3644 90.6308 31.5181L90.6042 31.5851C88.9259 28.5947 86.404 26.1653 83.3535 24.6003L83.4093 24.5753C80.412 23.007 76.7063 22.2612 72.7719 22.8889L72.8187 22.916C69.4949 23.4411 66.4763 24.9248 64.0629 27.0729L64.0565 27.0091C64.0565 27.0091 59.3425 30.7063 58.4023 37.3262L58.4427 37.2959C58.3014 38.1897 58.2302 39.0933 58.23 39.9983C58.23 42.1714 58.6384 44.2488 59.375 46.1692L59.309 46.1501C61.147 51.1043 64.7591 54.0786 68.2292 55.7112L68.21 55.6634C71.2493 57.0946 74.6426 57.5993 77.9667 57.1146L77.938 57.1513C82.5754 56.4895 86.0269 54.3185 88.5775 51.3639L88.5179 51.3618C90.6697 48.9041 92.1407 45.8378 92.6241 42.4645L92.6544 42.5183Z" fill="#1FCC79"/>
<path fill-rule="evenodd" clip-rule="evenodd" d="M59.1258 45.5889C57.6543 41.3076 58.3148 37.9641 58.3148 37.9641L61.1579 35.6937C61.9258 37.3167 62.8762 38.6679 63.8287 39.9128C62.8062 42.5157 62.6677 43.8587 62.4852 45.6288C62.4691 45.7847 62.4527 45.9439 62.4353 46.1076C61.2876 46.0539 60.1948 45.9028 59.1258 45.5889ZM72.3193 22.9777C72.5051 23.0759 72.823 23.2439 74.1549 24.3264C72.5217 25.1393 71.6027 25.8963 70.4253 27.4539C68.5001 27.4646 66.9637 27.6268 64.6503 28.5551C64.5227 27.9486 64.4243 27.3241 64.403 26.707C67.4631 24.1753 69.9818 23.4519 72.2936 22.9641C72.3019 22.9685 72.3105 22.973 72.3193 22.9777ZM83.8106 24.7924C86.5347 26.2598 88.8099 28.4388 90.3939 31.0974C90.1939 31.4826 90.041 32.0344 89.9385 32.4043C89.9028 32.5331 89.8732 32.6398 89.8499 32.7098C88.7261 31.6597 86.869 30.5138 84.7721 29.8531C84.0143 27.9486 83.0857 26.5974 81.9599 25.6367L83.8106 24.7924ZM68.8894 55.9827C68.3161 54.4149 68.264 53.0387 68.239 52.1104C70.771 52.0892 72.1548 51.8955 74.3714 51.0523C74.3781 51.0504 74.4298 51.093 74.5247 51.1715C75.0264 51.5861 76.7377 53.0002 79.4194 54.1016C79.3921 54.1482 79.3651 54.1944 79.3384 54.2402C78.6769 55.3723 78.1584 56.2597 77.408 57.2169C75.2994 57.4956 71.8835 57.3451 68.8894 55.9827ZM87.5274 44.2478C88.1757 43.7813 90.0706 42.3013 91.0762 41.0911L91.0757 41.0906C91.7527 41.7176 92.088 42.3933 92.4999 43.2235L92.5244 43.2727C92.134 45.3607 91.2682 48.0871 89.0431 50.814C88.7836 50.8571 87.4434 50.9316 86.7829 50.6938C87.3775 49.2005 87.8529 47.1471 87.5274 44.2478Z" fill="#3E5481"/>
<path d="M75.6503 34.0722V33.3333V33.1833H75.5003H74.6114H74.4614V33.3333V34.0722H73.2781C71.477 34.0722 70.017 35.5323 70.017 37.3333C70.017 39.1344 71.477 40.5945 73.2781 40.5945H76.8337C77.9781 40.5945 78.9059 41.5222 78.9059 42.6667C78.9059 43.8111 77.9781 44.7389 76.8337 44.7389H73.2781C72.1336 44.7389 71.2059 43.8111 71.2059 42.6667V42.5167H71.0559H70.167H70.017V42.6667C70.017 44.4677 71.477 45.9278 73.2781 45.9278H74.4614V46.6667V46.8167H74.6114H75.5003H75.6503V46.6667V45.9278H76.8337C78.6347 45.9278 80.0948 44.4677 80.0948 42.6667C80.0948 40.8656 78.6347 39.4056 76.8337 39.4056H73.2781C72.1336 39.4056 71.2059 38.4778 71.2059 37.3333C71.2059 36.1889 72.1336 35.2611 73.2781 35.2611H76.8337C77.9781 35.2611 78.9059 36.1889 78.9059 37.3333V37.4833H79.0559H79.9448H80.0948V37.3333C80.0948 35.5323 78.6347 34.0722 76.8337 34.0722H75.6503Z" fill="#3E5481" stroke="#3E5481" stroke-width="0.3"/>
<path d="M10.71 107.97H7.14V124H3.115V107.97H0.84V104.715H3.115V103.35C3.115 101.133 3.69833 99.5233 4.865 98.52C6.055 97.4933 7.91 96.98 10.43 96.98V100.305C9.21667 100.305 8.365 100.538 7.875 101.005C7.385 101.448 7.14 102.23 7.14 103.35V104.715H10.71V107.97ZM12.9161 114.27C12.9161 112.333 13.3128 110.618 14.1061 109.125C14.9228 107.632 16.0194 106.477 17.3961 105.66C18.7961 104.82 20.3361 104.4 22.0161 104.4C23.5328 104.4 24.8511 104.703 25.9711 105.31C27.1144 105.893 28.0244 106.628 28.7011 107.515V104.715H32.7261V124H28.7011V121.13C28.0244 122.04 27.1028 122.798 25.9361 123.405C24.7694 124.012 23.4394 124.315 21.9461 124.315C20.2894 124.315 18.7728 123.895 17.3961 123.055C16.0194 122.192 14.9228 121.002 14.1061 119.485C13.3128 117.945 12.9161 116.207 12.9161 114.27ZM28.7011 114.34C28.7011 113.01 28.4211 111.855 27.8611 110.875C27.3244 109.895 26.6128 109.148 25.7261 108.635C24.8394 108.122 23.8828 107.865 22.8561 107.865C21.8294 107.865 20.8728 108.122 19.9861 108.635C19.0994 109.125 18.3761 109.86 17.8161 110.84C17.2794 111.797 17.0111 112.94 17.0111 114.27C17.0111 115.6 17.2794 116.767 17.8161 117.77C18.3761 118.773 19.0994 119.543 19.9861 120.08C20.8961 120.593 21.8528 120.85 22.8561 120.85C23.8828 120.85 24.8394 120.593 25.7261 120.08C26.6128 119.567 27.3244 118.82 27.8611 117.84C28.4211 116.837 28.7011 115.67 28.7011 114.34ZM47.6968 104.4C49.2135 104.4 50.5668 104.715 51.7568 105.345C52.9701 105.975 53.9151 106.908 54.5918 108.145C55.2685 109.382 55.6068 110.875 55.6068 112.625V124H51.6518V113.22C51.6518 111.493 51.2201 110.175 50.3568 109.265C49.4935 108.332 48.3151 107.865 46.8218 107.865C45.3285 107.865 44.1385 108.332 43.2518 109.265C42.3885 110.175 41.9568 111.493 41.9568 113.22V124H37.9668V104.715H41.9568V106.92C42.6101 106.127 43.4385 105.508 44.4418 105.065C45.4685 104.622 46.5535 104.4 47.6968 104.4ZM65.3513 107.97V118.645C65.3513 119.368 65.5146 119.893 65.8413 120.22C66.1913 120.523 66.7746 120.675 67.5913 120.675H70.0413V124H66.8913C65.0946 124 63.718 123.58 62.7613 122.74C61.8046 121.9 61.3263 120.535 61.3263 118.645V107.97H59.0513V104.715H61.3263V99.92H65.3513V104.715H70.0413V107.97H65.3513ZM72.3888 114.27C72.3888 112.333 72.7854 110.618 73.5788 109.125C74.3954 107.632 75.4921 106.477 76.8688 105.66C78.2688 104.82 79.8088 104.4 81.4888 104.4C83.0054 104.4 84.3238 104.703 85.4438 105.31C86.5871 105.893 87.4971 106.628 88.1738 107.515V104.715H92.1988V124H88.1738V121.13C87.4971 122.04 86.5754 122.798 85.4088 123.405C84.2421 124.012 82.9121 124.315 81.4188 124.315C79.7621 124.315 78.2454 123.895 76.8688 123.055C75.4921 122.192 74.3954 121.002 73.5788 119.485C72.7854 117.945 72.3888 116.207 72.3888 114.27ZM88.1738 114.34C88.1738 113.01 87.8938 111.855 87.3338 110.875C86.7971 109.895 86.0854 109.148 85.1988 108.635C84.3121 108.122 83.3554 107.865 82.3288 107.865C81.3021 107.865 80.3454 108.122 79.4588 108.635C78.5721 109.125 77.8488 109.86 77.2888 110.84C76.7521 111.797 76.4838 112.94 76.4838 114.27C76.4838 115.6 76.7521 116.767 77.2888 117.77C77.8488 118.773 78.5721 119.543 79.4588 120.08C80.3688 120.593 81.3254 120.85 82.3288 120.85C83.3554 120.85 84.3121 120.593 85.1988 120.08C86.0854 119.567 86.7971 118.82 87.3338 117.84C87.8938 116.837 88.1738 115.67 88.1738 114.34ZM104.439 124.315C102.923 124.315 101.558 124.047 100.344 123.51C99.1545 122.95 98.2095 122.203 97.5095 121.27C96.8095 120.313 96.4361 119.252 96.3895 118.085H100.519C100.589 118.902 100.974 119.59 101.674 120.15C102.398 120.687 103.296 120.955 104.369 120.955C105.489 120.955 106.353 120.745 106.959 120.325C107.589 119.882 107.904 119.322 107.904 118.645C107.904 117.922 107.554 117.385 106.854 117.035C106.178 116.685 105.093 116.3 103.599 115.88C102.153 115.483 100.974 115.098 100.064 114.725C99.1545 114.352 98.3611 113.78 97.6845 113.01C97.0311 112.24 96.7045 111.225 96.7045 109.965C96.7045 108.938 97.0078 108.005 97.6145 107.165C98.2211 106.302 99.0845 105.625 100.204 105.135C101.348 104.645 102.654 104.4 104.124 104.4C106.318 104.4 108.079 104.96 109.409 106.08C110.763 107.177 111.486 108.682 111.579 110.595H107.589C107.519 109.732 107.169 109.043 106.539 108.53C105.909 108.017 105.058 107.76 103.984 107.76C102.934 107.76 102.129 107.958 101.569 108.355C101.009 108.752 100.729 109.277 100.729 109.93C100.729 110.443 100.916 110.875 101.289 111.225C101.663 111.575 102.118 111.855 102.654 112.065C103.191 112.252 103.984 112.497 105.034 112.8C106.434 113.173 107.578 113.558 108.464 113.955C109.374 114.328 110.156 114.888 110.809 115.635C111.463 116.382 111.801 117.373 111.824 118.61C111.824 119.707 111.521 120.687 110.914 121.55C110.308 122.413 109.444 123.09 108.324 123.58C107.228 124.07 105.933 124.315 104.439 124.315ZM120.791 107.97V118.645C120.791 119.368 120.954 119.893 121.281 120.22C121.631 120.523 122.214 120.675 123.031 120.675H125.481V124H122.331C120.534 124 119.157 123.58 118.201 122.74C117.244 121.9 116.766 120.535 116.766 118.645V107.97H114.491V104.715H116.766V99.92H120.791V104.715H125.481V107.97H120.791ZM127.828 114.27C127.828 112.333 128.225 110.618 129.018 109.125C129.835 107.632 130.932 106.477 132.308 105.66C133.708 104.82 135.248 104.4 136.928 104.4C138.445 104.4 139.763 104.703 140.883 105.31C142.027 105.893 142.937 106.628 143.613 107.515V104.715H147.638V124H143.613V121.13C142.937 122.04 142.015 122.798 140.848 123.405C139.682 124.012 138.352 124.315 136.858 124.315C135.202 124.315 133.685 123.895 132.308 123.055C130.932 122.192 129.835 121.002 129.018 119.485C128.225 117.945 127.828 116.207 127.828 114.27ZM143.613 114.34C143.613 113.01 143.333 111.855 142.773 110.875C142.237 109.895 141.525 109.148 140.638 108.635C139.752 108.122 138.795 107.865 137.768 107.865C136.742 107.865 135.785 108.122 134.898 108.635C134.012 109.125 133.288 109.86 132.728 110.84C132.192 111.797 131.923 112.94 131.923 114.27C131.923 115.6 132.192 116.767 132.728 117.77C133.288 118.773 134.012 119.543 134.898 120.08C135.808 120.593 136.765 120.85 137.768 120.85C138.795 120.85 139.752 120.593 140.638 120.08C141.525 119.567 142.237 118.82 142.773 117.84C143.333 116.837 143.613 115.67 143.613 114.34Z" fill="#3E5481"/>
</svg>
